<svg class="diagram-root" style="background: #f5f6f6" xmlns="http://www.w3.org/2000/svg" xmlns:xlink="http://www.w3.org/1999/xlink"><style>.diagram-root { font-family: "Helvetica Neue", sans-serif; font-size: 12px; } .t { overflow: visible; } .t-bg { y: 40; fill: #fff;   } .th { fill: #005aa0;   } .tht { fill: #fff; font-size: 14px;  } .tf { fill: #323c46; overflow: visible; } .tf.pk { fill: #005aa0; font-weight: bold; } .tf.fk { font-weight: bold; } .ty { fill: #adb1b5; font-weight: normal; text-anchor: end; } .r { fill: transparent; stroke: #c3c3c3; stroke-width: 1; } .l { stroke: 1; } .i { fill: #c2c7ce; stroke: #c2c7ce; } .i.ix { fill: #afb3b6; stroke: #000; } .fa { fill: transparent; overflow: visible; } .fa .bg.hover { fill: #f7f7f7; } .c { cy: 12; r: 4; stroke: #d2d2dc; fill: #d2d2dc; } .hr { fill: transparent; stroke: #323c46; stroke-opacity: 0.035; stroke-width: 13; } .dc { stroke: #fa5a3c; fill: #fa5a3c; } .x { stroke: white; stroke-width: 1; } .hl .th { fill: #1b9bff; } .hl .tht {  } .fhl .bg { fill: #e7f4ff; } .fhls .bg {  } .r.hl { stroke: #1b9bff; } .dim { opacity: 0.25; }</style><g class="drawing-wrapper" transform="translate(142.00142857142862, 454.2857142857145) scale(1,1)"><g class="rs"><path d="M 202.85285714285695 201.28142857142853 m -1, 0 a 1,1 0 1,0 2,0 a 1,1 0 1,0 -2,0 M 202.85285714285695 201.28142857142853 m -0.5, 0 a 0.5,0.5 0 1,0 1,0 a 0.5,0.5 0 1,0 -1,0  M202.85285714285695 201.28142857142853 L202.85285714285695 201.28142857142853 190.85285714285695 201.28142857142853 M 202.85285714285695 207.28142857142853 m -1, 0 a 1,1 0 1,0 2,0 a 1,1 0 1,0 -2,0 M 202.85285714285695 207.28142857142853 m -0.5, 0 a 0.5,0.5 0 1,0 1,0 a 0.5,0.5 0 1,0 -1,0  M202.85285714285695 207.28142857142853 L202.85285714285695 207.28142857142853 195.85285714285695 201.28142857142853 202.85285714285695 195.28142857142853 M 202.85285714285695 195.28142857142853 m -1, 0 a 1,1 0 1,0 2,0 a 1,1 0 1,0 -2,0 M 202.85285714285695 195.28142857142853 m -0.5, 0 a 0.5,0.5 0 1,0 1,0 a 0.5,0.5 0 1,0 -1,0  M190.85285714285695 201.28142857142853 Q 156.99 201.28142857142853, 123.12 -83 T 55.38 -367.2857142857145 M 43.38 -367.2857142857145 m -1, 0 a 1,1 0 1,0 2,0 a 1,1 0 1,0 -2,0 M 43.38 -367.2857142857145 m -0.5, 0 a 0.5,0.5 0 1,0 1,0 a 0.5,0.5 0 1,0 -1,0  M43.38 -367.2857142857145 L43.38 -367.2857142857145 55.38 -367.2857142857145 M49.38 -361.2857142857145 L49.38 -361.2857142857145 49.38 -373.2857142857145" id="h221257298" class="r"></path><path d="M 417.8600000000008 -260.1400000000001 m -1, 0 a 1,1 0 1,0 2,0 a 1,1 0 1,0 -2,0 M 417.8600000000008 -260.1400000000001 m -0.5, 0 a 0.5,0.5 0 1,0 1,0 a 0.5,0.5 0 1,0 -1,0  M417.8600000000008 -260.1400000000001 L417.8600000000008 -260.1400000000001 405.8600000000008 -260.1400000000001 M 417.8600000000008 -254.1400000000001 m -1, 0 a 1,1 0 1,0 2,0 a 1,1 0 1,0 -2,0 M 417.8600000000008 -254.1400000000001 m -0.5, 0 a 0.5,0.5 0 1,0 1,0 a 0.5,0.5 0 1,0 -1,0  M417.8600000000008 -254.1400000000001 L417.8600000000008 -254.1400000000001 410.8600000000008 -260.1400000000001 417.8600000000008 -266.1400000000001 M 417.8600000000008 -266.1400000000001 m -1, 0 a 1,1 0 1,0 2,0 a 1,1 0 1,0 -2,0 M 417.8600000000008 -266.1400000000001 m -0.5, 0 a 0.5,0.5 0 1,0 1,0 a 0.5,0.5 0 1,0 -1,0  M405.8600000000008 -260.1400000000001 Q 318.24 -260.1400000000001, 230.62 -313.71 T 55.38 -367.2857142857145 M 43.38 -367.2857142857145 m -1, 0 a 1,1 0 1,0 2,0 a 1,1 0 1,0 -2,0 M 43.38 -367.2857142857145 m -0.5, 0 a 0.5,0.5 0 1,0 1,0 a 0.5,0.5 0 1,0 -1,0  M43.38 -367.2857142857145 L43.38 -367.2857142857145 55.38 -367.2857142857145 M49.38 -361.2857142857145 L49.38 -361.2857142857145 49.38 -373.2857142857145" id="h1168633520" class="r"></path><path d="M 28.35 318.42999999999967 m -1, 0 a 1,1 0 1,0 2,0 a 1,1 0 1,0 -2,0 M 28.35 318.42999999999967 m -0.5, 0 a 0.5,0.5 0 1,0 1,0 a 0.5,0.5 0 1,0 -1,0  M28.35 318.42999999999967 L28.35 318.42999999999967 40.35 318.42999999999967 M 28.35 324.42999999999967 m -1, 0 a 1,1 0 1,0 2,0 a 1,1 0 1,0 -2,0 M 28.35 324.42999999999967 m -0.5, 0 a 0.5,0.5 0 1,0 1,0 a 0.5,0.5 0 1,0 -1,0  M28.35 324.42999999999967 L28.35 324.42999999999967 35.35 318.42999999999967 28.35 312.42999999999967 M 28.35 312.42999999999967 m -1, 0 a 1,1 0 1,0 2,0 a 1,1 0 1,0 -2,0 M 28.35 312.42999999999967 m -0.5, 0 a 0.5,0.5 0 1,0 1,0 a 0.5,0.5 0 1,0 -1,0  M40.35 318.42999999999967 C 114.398 318.42999999999967, 105.38 -367.2857142857145, 55.38 -367.2857142857145 M 43.38 -367.2857142857145 m -1, 0 a 1,1 0 1,0 2,0 a 1,1 0 1,0 -2,0 M 43.38 -367.2857142857145 m -0.5, 0 a 0.5,0.5 0 1,0 1,0 a 0.5,0.5 0 1,0 -1,0  M43.38 -367.2857142857145 L43.38 -367.2857142857145 55.38 -367.2857142857145 M49.38 -361.2857142857145 L49.38 -361.2857142857145 49.38 -373.2857142857145" id="h2573923984" class="r"></path><path d="M 28.35 343.42999999999967 m -1, 0 a 1,1 0 1,0 2,0 a 1,1 0 1,0 -2,0 M 28.35 343.42999999999967 m -0.5, 0 a 0.5,0.5 0 1,0 1,0 a 0.5,0.5 0 1,0 -1,0  M28.35 343.42999999999967 L28.35 343.42999999999967 40.35 343.42999999999967 M 28.35 349.42999999999967 m -1, 0 a 1,1 0 1,0 2,0 a 1,1 0 1,0 -2,0 M 28.35 349.42999999999967 m -0.5, 0 a 0.5,0.5 0 1,0 1,0 a 0.5,0.5 0 1,0 -1,0  M28.35 349.42999999999967 L28.35 349.42999999999967 35.35 343.42999999999967 28.35 337.42999999999967 M 28.35 337.42999999999967 m -1, 0 a 1,1 0 1,0 2,0 a 1,1 0 1,0 -2,0 M 28.35 337.42999999999967 m -0.5, 0 a 0.5,0.5 0 1,0 1,0 a 0.5,0.5 0 1,0 -1,0  M40.35 343.42999999999967 Q 122.09 343.42999999999967, 203.82 344.5 T 367.28285714285687 345.5742857142856 M 379.28285714285687 345.5742857142856 m -1, 0 a 1,1 0 1,0 2,0 a 1,1 0 1,0 -2,0 M 379.28285714285687 345.5742857142856 m -0.5, 0 a 0.5,0.5 0 1,0 1,0 a 0.5,0.5 0 1,0 -1,0  M379.28285714285687 345.5742857142856 L379.28285714285687 345.5742857142856 367.28285714285687 345.5742857142856 M373.28285714285687 351.5742857142856 L373.28285714285687 351.5742857142856 373.28285714285687 339.5742857142856" id="h2672714042" class="r"></path><path d="M 541.47 -7.285714285714349 m -1, 0 a 1,1 0 1,0 2,0 a 1,1 0 1,0 -2,0 M 541.47 -7.285714285714349 m -0.5, 0 a 0.5,0.5 0 1,0 1,0 a 0.5,0.5 0 1,0 -1,0  M541.47 -7.285714285714349 L541.47 -7.285714285714349 553.47 -7.285714285714349 M 541.47 -1.2857142857143486 m -1, 0 a 1,1 0 1,0 2,0 a 1,1 0 1,0 -2,0 M 541.47 -1.2857142857143486 m -0.5, 0 a 0.5,0.5 0 1,0 1,0 a 0.5,0.5 0 1,0 -1,0  M541.47 -1.2857142857143486 L541.47 -1.2857142857143486 548.47 -7.285714285714349 541.47 -13.285714285714349 M 541.47 -13.285714285714349 m -1, 0 a 1,1 0 1,0 2,0 a 1,1 0 1,0 -2,0 M 541.47 -13.285714285714349 m -0.5, 0 a 0.5,0.5 0 1,0 1,0 a 0.5,0.5 0 1,0 -1,0  M553.47 -7.285714285714349 C 611.8059999999999 -7.285714285714349, 608.68 345.5742857142856, 558.68 345.5742857142856 M 546.68 345.5742857142856 m -1, 0 a 1,1 0 1,0 2,0 a 1,1 0 1,0 -2,0 M 546.68 345.5742857142856 m -0.5, 0 a 0.5,0.5 0 1,0 1,0 a 0.5,0.5 0 1,0 -1,0  M546.68 345.5742857142856 L546.68 345.5742857142856 558.68 345.5742857142856 M552.68 351.5742857142856 L552.68 351.5742857142856 552.68 339.5742857142856" id="h639454232" class="r"></path><path d="M 422.8571428571428 17.71428571428565 m -1, 0 a 1,1 0 1,0 2,0 a 1,1 0 1,0 -2,0 M 422.8571428571428 17.71428571428565 m -0.5, 0 a 0.5,0.5 0 1,0 1,0 a 0.5,0.5 0 1,0 -1,0  M422.8571428571428 17.71428571428565 L422.8571428571428 17.71428571428565 410.8571428571428 17.71428571428565 M 422.8571428571428 23.71428571428565 m -1, 0 a 1,1 0 1,0 2,0 a 1,1 0 1,0 -2,0 M 422.8571428571428 23.71428571428565 m -0.5, 0 a 0.5,0.5 0 1,0 1,0 a 0.5,0.5 0 1,0 -1,0  M422.8571428571428 23.71428571428565 L422.8571428571428 23.71428571428565 415.8571428571428 17.71428571428565 422.8571428571428 11.714285714285651 M 422.8571428571428 11.714285714285651 m -1, 0 a 1,1 0 1,0 2,0 a 1,1 0 1,0 -2,0 M 422.8571428571428 11.714285714285651 m -0.5, 0 a 0.5,0.5 0 1,0 1,0 a 0.5,0.5 0 1,0 -1,0  M410.8571428571428 17.71428571428565 Q 321.99 17.71428571428565, 233.12 -174.79 T 55.38 -367.2857142857145 M 43.38 -367.2857142857145 m -1, 0 a 1,1 0 1,0 2,0 a 1,1 0 1,0 -2,0 M 43.38 -367.2857142857145 m -0.5, 0 a 0.5,0.5 0 1,0 1,0 a 0.5,0.5 0 1,0 -1,0  M43.38 -367.2857142857145 L43.38 -367.2857142857145 55.38 -367.2857142857145 M49.38 -361.2857142857145 L49.38 -361.2857142857145 49.38 -373.2857142857145" id="h1499507187" class="r"></path></g><g class="hrs"></g><g class="ts"><svg width="167.4" height="100" x="379.28285714285687" y="288.5742857142856" id="h3708248841" class="t"><rect height="40" width="167.4" class="th"></rect><text x="13" y="25" class="tht">Departments</text><rect height="60" width="167.4" class="t-bg"></rect><text x="13" y="61" class="tf pk">dept_no<tspan x="154.4" class="ty">int</tspan></text><path d="M7,14A2,2 0 0,1 5,12A2,2 0 0,1 7,10A2,2 0 0,1 9,12A2,2 0 0,1 7,14M12.65,10C11.83,7.67 9.61,6 7, 6A6, 6 0 0, 0 1, 12A6, 6 0 0, 0 7, 18C9.61, 18 11.83, 16.33 12.65, 14H17V18H21V14H23V10H12.65Z" class="i pk" transform="translate(121.726171875, 48) scale(0.65)"></path><text x="13" y="86" class="tf">dept_name<tspan x="154.4" class="ty">varchar(30)</tspan></text></svg><svg width="163.38" height="200" x="-120.00142857142862" y="-424.2857142857145" id="h3299212598" class="t"><rect height="40" width="163.38" class="th"></rect><text x="13" y="25" class="tht">Employees</text><rect height="160" width="163.38" class="t-bg"></rect><text x="13" y="61" class="tf pk">emp_no<tspan x="150.38" class="ty">int</tspan></text><path d="M7,14A2,2 0 0,1 5,12A2,2 0 0,1 7,10A2,2 0 0,1 9,12A2,2 0 0,1 7,14M12.65,10C11.83,7.67 9.61,6 7, 6A6, 6 0 0, 0 1, 12A6, 6 0 0, 0 7, 18C9.61, 18 11.83, 16.33 12.65, 14H17V18H21V14H23V10H12.65Z" class="i pk" transform="translate(117.706171875, 48) scale(0.65)"></path><text x="13" y="86" class="tf">birthdate<tspan x="150.38" class="ty">date</tspan></text><text x="13" y="111" class="tf">first_name<tspan x="150.38" class="ty">varchar(30)</tspan></text><text x="13" y="136" class="tf">last_name<tspan x="150.38" class="ty">varchar(30)</tspan></text><text x="13" y="161" class="tf">gender<tspan x="150.38" class="ty">varchar</tspan></text><text x="13" y="186" class="tf">hire_date<tspan x="150.38" class="ty">date</tspan></text></svg><svg width="126.03" height="150" x="417.8600000000008" y="-317.1400000000001" id="h3517680912" class="t"><rect height="40" width="126.03" class="th"></rect><text x="13" y="25" class="tht">Titles</text><rect height="110" width="126.03" class="t-bg"></rect><text x="13" y="61" class="tf fk">emp_no<tspan x="113.03" class="ty">int</tspan></text><text x="13" y="86" class="tf">title<tspan x="113.03" class="ty">charvar(30)</tspan></text><text x="13" y="111" class="tf">from_date<tspan x="113.03" class="ty">date</tspan></text><text x="13" y="136" class="tf">to_date<tspan x="113.03" class="ty">date</tspan></text></svg><svg width="124.06" height="150" x="-95.71000000000004" y="261.42999999999967" id="h3531437595" class="t"><rect height="40" width="124.06" class="th"></rect><text x="13" y="25" class="tht">Dept_employee</text><rect height="110" width="124.06" class="t-bg"></rect><text x="13" y="61" class="tf fk">emp_no<tspan x="111.06" class="ty">int</tspan></text><text x="13" y="86" class="tf fk">dept_no<tspan x="111.06" class="ty">int</tspan></text><text x="13" y="111" class="tf">from_date<tspan x="111.06" class="ty">date</tspan></text><text x="13" y="136" class="tf">to_date<tspan x="111.06" class="ty">date</tspan></text></svg><svg width="123.38" height="150" x="202.85285714285695" y="144.28142857142853" id="h3858243705" class="t"><rect height="40" width="123.38" class="th"></rect><text x="13" y="25" class="tht">Salaries</text><rect height="110" width="123.38" class="t-bg"></rect><text x="13" y="61" class="tf fk">emp_no<tspan x="110.38" class="ty">int</tspan></text><text x="13" y="86" class="tf">salary<tspan x="110.38" class="ty">int</tspan></text><text x="13" y="111" class="tf">from_date<tspan x="110.38" class="ty">date</tspan></text><text x="13" y="136" class="tf">to_date<tspan x="110.38" class="ty">date</tspan></text></svg><svg width="118.61" height="100" x="422.8571428571428" y="-64.28571428571435" id="h2403958395" class="t"><rect height="40" width="118.61" class="th"></rect><text x="13" y="25" class="tht">Dept_manager</text><rect height="60" width="118.61" class="t-bg"></rect><text x="13" y="61" class="tf fk">dept_no<tspan x="105.61" class="ty">int</tspan></text><text x="13" y="86" class="tf fk">emp_no<tspan x="105.61" class="ty">int</tspan></text></svg></g></g><text class="qdbd-link" x="10" y="20">www.quickdatabasediagrams.com</text></svg>